# xmcd CD database file
#
# Track frame offsets:
#	150
#	4341
#	10483
#	24276
#	31090
#	46412
#	57528
#	61457
#	82252
#	91666
#	95457
#	98007
#	108956
#	118373
#	150358
#	159219
#	174838
#	184205
#
# Disc length: 2671 seconds
#
# Revision: 0
# Processed by: cddbd v1.5PL3 Copyright (c) Steve Scherf et al.
# Submitted via: CDex 1.50
#
DISCID=d60a6d12
DTITLE=Kroko - Furia
DYEAR=2001
DGENRE=Jazz
TTITLE0=On Fahrenheit And Little Bit Celsius
TTITLE1=Ambient Ballad pt. 1
TTITLE2=Polanski After Ski
TTITLE3=On the Sunny Side of the Meat
TTITLE4=Agent Weird
TTITLE5=Liero
TTITLE6=Bad Day for Mr. Rudiment
TTITLE7=Sol Ist
TTITLE8=Budala Ptiza
TTITLE9=Bummärtti
TTITLE10=Fire Will Bring Me Home It's What My Soul Needs
TTITLE11=Trukki
TTITLE12=In Your Fratze
TTITLE13=Sweet Home Albamama
TTITLE14=Colors and Rainbows and Teddybears
TTITLE15=Setzur Au Naturelle
TTITLE16=Ambient Ballad pt. 2
TTITLE17=Roikkuu katosta
EXTD=YEAR: 2001
EXTT0=
EXTT1=
EXTT2=
EXTT3=
EXTT4=
EXTT5=
EXTT6=
EXTT7=
EXTT8=
EXTT9=
EXTT10=
EXTT11=
EXTT12=
EXTT13=
EXTT14=
EXTT15=
EXTT16=
EXTT17=
PLAYORDER=
